<?xml version="1.0" encoding="utf-8"?>
<!-- Generator: Adobe Illustrator 27.6.1, SVG Export Plug-In . SVG Version: 6.00 Build 0)  -->
<svg version="1.1" id="Layer_1" xmlns="http://www.w3.org/2000/svg" xmlns:xlink="http://www.w3.org/1999/xlink" x="0px" y="0px"
	 viewBox="0 0 876.5 770.8" style="enable-background:new 0 0 876.5 770.8;" xml:space="preserve">
<path id="Simplified_Stacked_Logo" d="M418.6,534.3h-42l-31.8,34.3v-82h-35.3v151.2h35.3v-28l14-14.7l21.4,42.5h41.2l-36.5-67.1
	L418.6,534.3L418.6,534.3z M133.1,520.7h36.7v117h37.6v-117h23.8l13.4-34.2H133.1L133.1,520.7L133.1,520.7z M271.1,484.6
	c-11.5,0-19.7,7.9-19.7,18.9c0,11,8.1,18.9,19.7,18.9s19.7-8.1,19.7-18.9S282.7,484.6,271.1,484.6L271.1,484.6z M556.1,521.5
	c-34,0-59.9,25.9-59.9,59.3s25.9,59.3,59.9,59.3s59.9-25.9,59.9-59.3S590.1,521.5,556.1,521.5z M556.1,607.9
	c-15.1,0-25.5-11.2-25.5-27s10.4-27,25.5-27s25.5,11.2,25.5,27S571.2,607.9,556.1,607.9z M520.1,486.5H403.5v34.2h36.7v117h37.6
	v-117h28.9L520.1,486.5z M253.6,637.7h35.3V534.2h-35.3V637.7z M706.8,570.4l33.7-36.2h-42l-31.8,34.3v-82h-35.3v151.2h35.3v-28
	l14-14.7l21.4,42.5h41.2L706.8,570.4L706.8,570.4z M400.6,432.8c46.9,0,96.6-34.5,96.6-99.5V227.4c20.7,20.7,45.8,27.2,72.8,27.2
	v-47.7c-33.2-2.3-69.9-24.1-78.2-73.8h-47.9v203.6c0,26.7-19.2,43.8-42.5,43.8s-44-17.2-44-43.8c0-30.8,24.1-47.1,56.2-43.7v-51.6
	c-4.7-0.8-9.3-1-13.2-1c-52.6,0-96.6,42.2-96.6,94.5C303.7,390.3,347.2,432.8,400.6,432.8L400.6,432.8z"/>
</svg>
