<?xml version="1.0" encoding="UTF-8"?><svg id="Layer_1" xmlns="http://www.w3.org/2000/svg" viewBox="0 0 868.93 769.97"><defs><style>.cls-1{fill:#f1204a;}.cls-2{fill:#fff;}.cls-3{fill:#2dccd3;}</style></defs><g id="Secondary_Logo"><path id="_Path_" class="cls-3" d="m543.25,521.62c-1.57-.11-3.16-.18-4.76-.18-33.04,0-58.18,25.13-58.18,57.61s25.13,57.63,58.18,57.63c1.6,0,3.19-.06,4.76-.18-30.66-2.28-53.41-26.54-53.41-57.45s22.75-55.15,53.41-57.43Zm-138.04-271.11v-9.79c-4.53-.75-9.05-1-12.8-1-51.02,0-93.74,40.94-93.74,91.72,0,33.33,16.22,61.83,40.88,78.69-17.18-17.04-27.83-40.9-27.83-67.91,0-50.69,42.59-91.61,93.5-91.72Zm75.9-114.82h-46.49v197.51c0,25.88-18.6,42.52-41.21,42.52-7.5,0-14.62-1.75-20.82-4.99,7.86,10.03,20.26,15.8,33.87,15.8,22.61,0,41.21-16.64,41.21-42.54v-197.51h35.84c-.98-3.44-1.78-7.04-2.4-10.79Zm35.91,58.25c11.41,11.76,25.63,18.93,39.97,22.19v-8.83c-13.47-.95-27.56-5.19-39.97-13.36Z"/><path id="_Path_-2" class="cls-1" d="m557.55,521.44c-1.6,0-3.19.06-4.76.18,30.64,2.28,53.4,26.54,53.4,57.43s-22.75,55.16-53.4,57.45c1.57.11,3.16.18,4.76.18,33.03,0,58.16-25.15,58.16-57.63s-25.13-57.61-58.16-57.61Zm-40.53-327.5c-11.03-11.34-19.44-26.96-22.86-47.47h-10.65c6.08,22.17,18.6,37.64,33.51,47.47Zm53.02,24.15c-4.31-.29-8.7-.93-13.05-1.95v37.39c-20.71,0-40.3-3.95-57.57-15.58,20.11,20.11,44.5,26.39,70.62,26.39v-46.25Zm-197.45,152.64c-5.55-7.01-8.85-16.09-8.85-26.74,0-29.89,23.37-45.69,54.53-42.41v-50.07c-4.53-.75-9.05-1-12.83-1h-.22v40.26c-31.16-3.26-54.53,12.52-54.53,42.43,0,17.49,8.94,30.76,21.9,37.53Zm113.78-40.79c0,63.07-48.25,96.49-93.72,96.49-19.68,0-37.97-5.95-53.11-16.29,17,16.87,40.39,27.07,66.16,27.07,45.47,0,93.72-33.42,93.72-96.49v-102.77c-4.53-3.06-8.88-6.64-13.05-10.81v102.79Z"/><path id="_Path_-3" class="cls-2" d="m412.19,533.83h-40.74l-30.84,33.3v-79.64h-34.31v146.79h34.31v-27.16l13.58-14.31,20.73,41.29h40l-35.41-65.14,32.68-35.13Zm-276.51-14h35.6v114.46h36.51v-114.46h23.98l12.57-32.33h-108.67v32.33Zm116.93,114.46h34.31v-100.46h-34.31v100.46Zm17.06-148.63c-11.19,0-19.08,7.71-19.08,18.35s7.89,18.35,19.08,18.35,19.08-7.89,19.08-18.35-7.89-18.35-19.08-18.35Zm428.16,83.31l32.68-35.13h-40.74l-30.84,33.3v-79.64h-34.31v146.79h34.31v-27.16l13.58-14.31,20.73,41.29h40l-35.41-65.14Zm-188.23-81.47h-113.22v32.33h35.6v114.46h36.51v-114.46h28.53l12.58-32.33Zm43.18,34.12c-1.57-.11-3.16-.18-4.76-.18s-3.19.06-4.76.18c-30.66,2.28-53.41,26.53-53.41,57.43s22.75,55.16,53.41,57.45c1.57.11,3.16.18,4.76.18s3.19-.06,4.76-.18c30.64-2.28,53.4-26.56,53.4-57.45s-22.75-55.15-53.4-57.43Zm0,83.26c-1.52.28-3.11.41-4.76.41s-3.24-.13-4.76-.41c-12.06-2.09-20.01-12.15-20.01-25.83s7.96-23.74,20.01-25.83c1.52-.28,3.11-.41,4.76-.41s3.24.13,4.76.41c12.04,2.09,20,12.15,20,25.83s-7.96,23.74-20,25.83Zm-160.13-178.46c45.47,0,93.72-33.42,93.72-96.49v-102.79c4.17,4.17,8.52,7.75,13.05,10.81,17.27,11.63,36.86,15.58,57.57,15.58v-37.39c-14.34-3.26-28.56-10.43-39.97-22.19-14.91-9.83-27.43-25.3-33.51-47.47h-35.84v197.51c0,25.9-18.6,42.54-41.21,42.54-13.6,0-26.01-5.77-33.87-15.8-12.96-6.77-21.9-20.04-21.9-37.53,0-29.92,23.37-45.69,54.53-42.43v-40.26c-50.91.11-93.5,41.03-93.5,91.72,0,27.01,10.65,50.86,27.83,67.91,15.14,10.34,33.42,16.29,53.11,16.29Z"/></g></svg>